<?xml version="1.0" encoding="UTF-8" standalone="no"?>
<svg
   version="1.1"
   id="Layer_1"
   x="0px"
   y="0px"
   width="100%"
   viewBox="0 0 1024 1024"
   enable-background="new 0 0 1024 1024"
   xml:space="preserve"
   sodipodi:docname="icon.svg"
   inkscape:version="1.4 (86a8ad7, 2024-10-11)"
   xmlns:inkscape="http://www.inkscape.org/namespaces/inkscape"
   xmlns:sodipodi="http://sodipodi.sourceforge.net/DTD/sodipodi-0.dtd"
   xmlns="http://www.w3.org/2000/svg"
   xmlns:svg="http://www.w3.org/2000/svg"><defs
   id="defs7" /><sodipodi:namedview
   id="namedview7"
   pagecolor="#ffffff"
   bordercolor="#000000"
   borderopacity="0.25"
   inkscape:showpageshadow="2"
   inkscape:pageopacity="0.0"
   inkscape:pagecheckerboard="0"
   inkscape:deskcolor="#d1d1d1"
   inkscape:zoom="0.55726091"
   inkscape:cx="255.71505"
   inkscape:cy="465.67056"
   inkscape:window-width="1920"
   inkscape:window-height="1009"
   inkscape:window-x="-8"
   inkscape:window-y="-8"
   inkscape:window-maximized="1"
   inkscape:current-layer="Layer_1" />
<path
   fill="#000000"
   opacity="1"
   stroke="none"
   d="m 593.01768,938.91308 c -15.69433,-12.6755 -28.06441,-27.65301 -37.7587,-44.78427 -2.80263,-4.9526 -5.66999,-5.85927 -10.94144,-3.73693 -33.63298,13.54074 -68.77631,21.27004 -104.66777,25.28901 -36.28151,4.06263 -72.57906,4.04464 -108.81275,-1.75947 -16.92753,-2.71159 -33.75775,-5.64198 -50.0651,-10.91402 -4.91555,-1.5891 -7.25982,-0.17685 -9.17919,4.10018 -6.53203,14.55565 -13.59291,28.88666 -19.71464,43.61008 -5.74792,13.82412 -15.03046,17.10022 -28.6245,14.35946 -52.13973,-10.51216 -88.07145,-40.83736 -107.58704,-90.3522 -5.48543,-13.91767 -4.41017,-12.66655 -15.42733,-3.74897 -9.200176,7.447 -18.455632,14.81552 -28.689098,20.79116 C 51.327086,903.57594 32.913934,898.71024 20.565615,878.65264 12.060408,864.83747 8.5062223,849.633 8.0733041,833.68026 6.866346,789.20544 22.571791,750.03623 46.45574,713.55329 c 10.160162,-15.5197 21.284044,-30.39818 34.321703,-43.56744 7.072945,-7.14446 8.457636,-14.98524 7.532627,-24.13041 -1.728602,-17.08989 -0.901783,-34.15156 -0.177379,-51.28888 0.85757,-20.28744 3.389152,-40.31083 6.1736,-60.35795 1.848773,-13.31075 1.547798,-13.02842 -10.123871,-19.98063 -32.984114,-19.64711 -59.456219,-44.94235 -69.244931,-83.69859 -7.3085064,-28.93638 -2.970724,-57.0591 7.900795,-84.34277 12.72161,-31.92672 32.495378,-59.3263 55.673348,-84.36267 25.540458,-27.58826 53.960308,-51.85589 85.341258,-72.61008 2.19225,-1.44989 4.22891,-2.60796 2.7408,-6.04099 -9.6124,-22.1751 -22.77215,-41.43248 -44.21464,-53.79417 -9.36494,-5.39895 -19.70716,-7.56603 -30.474567,-8.18999 C 79.03897,120.44318 66.54045,118.30843 55.412219,110.99041 42.28799,102.35981 35.400021,87.378566 38.616124,73.603256 42.050841,58.891541 54.245368,49.275886 69.612217,48.346916 107.50854,46.056003 135.32561,63.577557 157.40192,92.51166 c 16.25246,21.30113 32.43562,42.65677 48.4311,64.15079 2.80544,3.76987 4.97849,4.29256 9.18095,2.06679 48.15195,-25.50294 99.51714,-41.25407 153.17653,-49.89876 33.87588,-5.45752 67.99752,-8.04401 102.27649,-7.08824 83.78803,2.33625 163.24937,21.40158 236.68045,62.83426 4.31195,2.43295 6.32948,1.73957 9.07716,-2.05921 17.08947,-23.62621 34.27666,-47.18486 51.70244,-70.563882 14.8696,-19.949559 33.32344,-35.162146 58.07811,-41.207968 12.15764,-2.969272 24.27623,-3.504902 36.67598,-0.07506 26.42513,7.309393 28.39581,37.092987 13.07375,52.81898 -9.44929,9.69843 -21.17843,14.61245 -34.44832,16.58259 -7.77328,1.15409 -15.6663,0.98651 -23.37945,2.89866 -17.09877,4.23888 -30.03054,14.42078 -40.56442,27.96545 -8.35207,10.73915 -15.84505,22.0808 -22.23222,34.13375 -4.12888,7.79145 -4.22684,7.73804 2.78257,13.02248 18.03812,13.59921 33.84945,29.45055 47.88761,47.12538 27.9876,35.23816 46.06782,75.00778 54.15041,119.22804 4.5379,24.82693 6.33373,49.83439 4.05779,75.12173 -0.67646,7.51521 -2.62736,15.11384 -1.30642,22.47497 1.8281,1.64996 3.3936,0.69573 4.81575,0.33743 32.08775,-8.08451 64.65599,-13.62334 97.49846,-17.25188 11.81901,-1.30577 23.80232,-2.93837 35.88656,-0.68667 10.713,1.99621 17.359,9.11688 17.8332,20.13993 0.8994,20.90757 -5.206,40.47687 -11.5453,59.92291 -20.11666,61.70856 -51.38851,117.03539 -95.24865,165.08384 -8.96824,9.82451 -8.76569,9.80068 0.5219,19.13413 24.71606,24.83789 42.54484,53.72032 49.77255,88.30932 5.44715,26.06839 5.93245,52.00446 -6.48282,76.67323 -4.7595,9.45688 -11.10985,17.66233 -19.90457,23.76298 -7.59706,5.26987 -15.63497,5.62034 -24.14765,2.33948 -9.85,-3.79619 -18.4156,-9.79932 -27.18014,-15.44802 -4.46765,-2.87943 -6.86047,-2.13137 -9.51511,2.69427 -24.41808,44.38826 -60.94145,74.336 -110.08771,86.52518 -62.15149,15.41468 -119.82653,4.22677 -171.90122,-34.66546 M 645.44044,633.3417 c 0.95345,-9.56766 1.80134,-19.14725 2.88146,-28.70064 2.53604,-22.43202 5.24316,-44.84484 7.76736,-67.27815 2.17338,-19.31564 3.75988,-38.71014 6.4979,-57.9428 1.02129,-7.17424 -0.12265,-11.52472 -6.3279,-15.79196 -34.75164,-23.89804 -64.49675,-52.92559 -87.89903,-88.18104 -4.97657,-7.49721 -9.56775,-15.25027 -14.27594,-22.78856 -0.84045,0.27146 -1.31695,0.27926 -1.54333,0.52115 -2.28764,2.44455 -4.60619,4.86588 -6.78202,7.40846 -48.89339,57.13295 -108.44486,99.68371 -176.96464,130.23416 -16.52529,7.36806 -30.02677,3.95418 -42.71581,-7.65446 -9.1659,-8.38541 -17.92308,-17.1409 -26.30707,-26.31155 -23.59231,-25.80611 -41.30592,-55.02552 -52.16631,-88.34086 -0.94069,-2.88561 -1.10906,-6.19847 -3.47637,-8.49374 -2.15717,0.17945 -3.21776,1.77365 -4.43124,2.9601 -16.50908,16.14076 -31.62656,33.41136 -44.93302,52.37579 -36.05646,51.38812 -52.53996,109.16429 -55.76085,171.04329 -1.06061,20.37637 -0.86397,40.89539 0.68943,61.38322 1.79109,23.62258 5.67185,46.73725 12.18708,69.48827 17.12419,59.79723 54.84661,100.84039 112.43488,123.82173 32.45107,12.95026 66.35998,19.93822 101.07124,21.93928 30.26174,1.74446 60.60365,0.57006 90.56949,-4.77864 37.84147,-6.75444 74.12309,-18.29692 108.04669,-36.64543 22.96006,-12.41867 44.43468,-26.99237 63.60041,-44.80593 4.04069,-3.75555 8.28263,-7.5472 8.2565,-13.73729 -0.10125,-24.00899 1.15274,-47.94263 3.69137,-71.81706 2.01357,-18.93627 3.90101,-37.88611 5.88972,-57.90734 M 570.09552,168.8403 c -5.3936,-1.08544 -10.79087,-2.1532 -16.18021,-3.25934 -24.30336,-4.98822 -48.94356,-7.71577 -73.65008,-8.6872 -44.7581,-1.75979 -89.24594,1.28156 -133.23404,10.38541 -38.3468,7.93628 -75.3794,19.73357 -110.71185,36.6973 -45.44976,21.82126 -85.75808,50.68259 -119.48978,88.29648 -20.388475,22.73494 -37.624256,47.58534 -48.260918,76.53853 -14.817152,40.33259 -0.543109,80.15147 36.510748,101.68023 1.63761,0.95155 3.19121,2.40109 5.59999,1.69164 1.33365,-1.59362 1.95831,-3.63864 2.65079,-5.69698 5.66942,-16.85259 13.00588,-32.98482 21.62596,-48.50706 28.655,-51.59924 68.96652,-93.18816 113.28667,-131.27501 5.04725,-4.33736 9.97066,-9.01517 16.43348,-11.38459 9.28644,-3.40477 15.39203,-0.41087 18.31026,8.78257 1.15877,3.65041 1.33703,7.33355 1.23738,11.08301 -0.51347,19.32477 0.35858,38.49152 4.67212,57.47082 7.8494,34.53681 24.70588,63.13745 53.51778,84.37822 6.64111,4.89598 12.30254,5.44873 19.88825,1.48067 37.87709,-19.81322 73.32236,-43.04563 105.50565,-71.29447 30.01538,-26.34594 57.74983,-54.72699 81.09983,-87.23032 3.3524,-4.66654 6.91066,-9.05159 12.47467,-11.39717 7.49631,-3.16022 14.32042,-0.99219 17.8145,6.38706 1.84082,3.88776 2.95928,8.12302 4.33766,12.22362 17.33504,51.57337 45.47393,95.4944 90.55056,127.29139 10.29336,7.2609 20.98888,13.95371 31.53323,20.85606 10.00281,6.54781 13.66251,16.13259 12.39541,27.51383 -1.32424,11.89488 -3.47416,23.69657 -5.18771,35.54992 -0.99083,6.85456 -1.83251,13.73068 -2.91458,21.90567 4.74817,-2.45371 8.25014,-4.13943 11.63466,-6.03486 11.86968,-6.64758 24.01447,-12.72033 36.48713,-18.16677 15.34625,-6.70127 30.74452,-13.24049 46.62776,-18.60367 3.37223,-1.13865 7.06376,-1.92043 7.62276,-6.96532 2.49727,-22.53785 3.34467,-45.04018 1.24672,-67.68648 -3.21934,-34.75052 -13.92647,-66.99424 -32.19177,-96.57846 -26.8846,-43.54486 -64.65448,-75.34861 -109.34296,-99.43251 -31.92491,-17.20529 -65.71005,-29.42963 -101.90007,-38.01222 m 268.95914,514.87699 c 66.95287,-47.2492 105.43293,-113.28177 127.33466,-191.09552 -5.66227,-0.50017 -9.84494,0.83058 -14.02581,1.69738 -44.53126,9.23284 -88.68101,19.97935 -132.26657,33.04001 -38.30319,11.47771 -74.86987,26.841 -109.25034,47.3229 -2.7967,1.66613 -5.20179,3.38286 -5.6334,7.01721 -1.06502,8.96651 -2.44486,17.89636 -3.46427,26.86748 -3.67881,32.37355 -7.36399,64.74688 -10.84602,97.14187 -2.61162,24.29715 -4.04011,48.63604 0.22565,72.91443 3.78536,21.54449 11.76401,41.28383 26.44203,57.79587 5.02226,5.64986 10.02388,11.60375 17.41357,15.02472 0.81347,-1.0586 1.52485,-1.74236 1.93653,-2.57444 0.6958,-1.40632 1.38143,-2.86152 1.76048,-4.37411 3.91638,-15.62936 5.03901,-31.3179 2.04423,-47.32608 -2.64865,-14.1587 -8.5928,-27.41394 -10.74539,-41.69384 -1.04569,-6.93673 -0.61878,-13.38488 3.72768,-19.10785 4.55675,-6.00018 11.42474,-8.20272 18.15118,-10.4355 30.64324,-10.17174 59.53966,-23.93688 87.19579,-42.21453 m -64.33737,201.69542 c -4.59392,7.01093 -9.97546,13.76992 -17.38449,17.37727 -10.96296,5.33794 -11.19222,14.97225 -12.69088,24.43857 2.36937,1.8087 4.4279,0.77578 6.4909,0.27633 31.47352,-7.61974 54.64228,-26.23738 70.69226,-53.949 10.10438,-17.44592 16.34969,-36.12022 16.56344,-56.57773 0.0795,-7.61014 4.71439,-10.59228 11.88399,-8.08187 3.51501,1.23084 6.88928,2.89906 10.25041,4.52793 16.34767,7.92235 31.0708,18.61236 46.822,27.55232 6.41164,3.63911 8.24018,2.70856 8.85368,-4.70841 0.63641,-7.69365 -0.21128,-15.3201 -1.6825,-22.87596 -6.25759,-32.13938 -24.60482,-57.03301 -47.47372,-79.22601 -2.09028,-2.02851 -3.84988,-2.49583 -6.67647,-0.81925 -23.41303,13.88715 -47.726,25.983 -73.13973,35.78715 -3.28474,1.26723 -4.05916,2.86168 -2.93053,6.25081 6.10109,18.31943 8.21613,37.22358 7.21491,56.4327 -0.98772,18.94868 -5.46166,36.93015 -16.79327,53.59515 M 653.90376,832.52643 c -2.27394,-4.36437 -4.48795,-2.11526 -6.85328,-0.0235 -12.41029,10.97544 -25.69532,20.8045 -39.48544,29.96535 -10.44417,6.93815 -10.57367,7.42735 -2.61055,17.22978 21.50205,26.46873 49.05516,42.58123 82.71918,48.2718 3.65247,0.6174 5.21385,-0.42136 5.12117,-4.13316 -0.2515,-10.06678 2.47229,-19.55838 6.76346,-28.44389 2.39239,-4.95355 1.50804,-7.68745 -2.69182,-10.7565 -18.49882,-13.51777 -32.06307,-31.19655 -42.96272,-52.10986 M 58.381048,842.84916 c 2.161412,2.21581 3.643518,0.0526 4.992367,-1.00455 19.848155,-15.55406 38.716535,-32.16146 55.292475,-51.26635 2.43123,-2.80219 2.71838,-4.97976 1.1209,-8.33257 -7.71451,-16.1909 -13.7827,-33.01038 -18.36362,-50.3592 -0.52882,-2.00273 -0.93336,-4.1141 -3.423788,-5.57391 -14.821719,20.37861 -27.772286,41.33117 -35.551248,65.20114 -5.394748,16.55397 -6.758848,33.37815 -4.067086,51.33544 m 113.135542,2.4707 c -3.82124,-3.09424 -6.38348,-7.78446 -11.37962,-9.76085 -1.24283,3.87769 -1.6043,6.32603 -1.195,9.12721 3.34754,22.90974 13.83527,41.57769 32.92811,55.05959 5.30308,3.74464 10.68819,7.37156 17.04662,9.22356 2.63808,0.76842 4.5964,0.42965 5.79458,-2.30693 3.44772,-7.87448 6.94398,-15.72766 10.66978,-24.1514 -19.78343,-9.97206 -37.5399,-21.84832 -53.86447,-37.19118 z"
   id="path1"
   style="stroke-width:1.1827" />
<path
   fill="#000000"
   opacity="1"
   stroke="none"
   d="m 436.21754,830.47195 c -38.26016,13.67442 -72.96481,5.92922 -103.91182,-17.63489 -28.03098,-21.34376 -42.34276,-50.70873 -40.22547,-86.31938 2.17764,-36.6256 23.87274,-65.47437 63.77381,-70.92384 33.23772,-4.53927 60.69009,9.59086 83.79597,32.78025 18.60806,18.6753 31.06276,40.79397 34.37775,67.12497 3.87545,30.78192 -4.9791,60.63025 -37.81024,74.97289 z"
   id="path2"
   style="stroke-width:1.1827" />
<path
   fill="#000000"
   opacity="1"
   stroke="none"
   d="m 552.59813,587.24597 c 1.51201,17.23368 1.72135,33.8675 -2.37564,50.28708 -2.16557,8.67913 -5.39049,16.91795 -11.35153,23.72898 -13.38907,15.29831 -34.10947,13.43123 -44.63031,-3.98432 -6.26595,-10.37218 -8.442,-22.03455 -9.23165,-33.82252 -1.34734,-20.11485 -0.59915,-40.1181 7.1574,-59.17404 3.00719,-7.38774 7.06346,-14.08508 13.99433,-18.55123 11.99068,-7.7265 26.70616,-4.94857 35.02379,6.59628 6.15877,8.54833 8.45471,18.48721 10.28852,28.59281 0.35039,1.9309 0.72461,3.85748 1.12509,6.32696 z"
   id="path3"
   style="stroke-width:1.1827" />
<path
   fill="#000000"
   opacity="1"
   stroke="none"
   d="m 244.61575,548.14548 c 9.97278,12.83005 13.07061,27.71149 14.43326,42.8372 1.46982,16.31555 0.64495,32.65507 -4.89828,48.36376 -2.93174,8.30817 -7.21806,15.83378 -14.60514,20.97724 -12.09473,8.42122 -26.10337,5.86065 -34.8168,-6.01764 -7.07223,-9.64108 -10.61055,-20.69716 -11.96068,-32.30633 -1.93787,-16.66371 -1.42398,-33.35752 2.20229,-49.82018 1.74788,-7.93506 4.63646,-15.44623 9.52768,-22.06835 10.80881,-14.63391 27.2874,-15.5885 40.11767,-1.9657 z"
   id="path4"
   style="stroke-width:1.1827" />
<path
   fill="#000000"
   opacity="1"
   stroke="none"
   d="m 461.41415,498.34958 c 7.27807,-8.091 16.18127,-13.22715 25.42231,-17.62345 21.38959,-10.17585 43.25501,-19.05645 67.45638,-19.46702 7.62039,-0.12931 14.67138,1.94253 18.18301,9.59078 3.56786,7.77072 0.76698,14.66972 -4.31528,20.70389 -8.79068,10.43723 -20.99559,15.82357 -33.04213,21.14516 -17.29642,7.64067 -35.1203,13.83644 -53.83654,17.12147 -4.6975,0.82444 -9.34015,0.9797 -14.01195,-0.32541 -12.53984,-3.50312 -16.84219,-13.82229 -10.30019,-25.1107 1.17559,-2.02853 2.76736,-3.81594 4.44439,-6.03472 z"
   id="path5"
   style="stroke-width:1.1827" />
<path
   fill="#000000"
   opacity="1"
   stroke="none"
   d="m 253.67625,525.21307 c -22.04283,-6.38683 -43.36044,-13.20441 -62.14047,-26.07099 -3.97788,-2.72538 -6.9933,-6.279 -9.43343,-10.39612 -3.92291,-6.61892 -4.65405,-13.37845 -0.36357,-20.01412 4.32181,-6.68413 11.43401,-8.89396 18.54353,-7.99018 25.22429,3.20671 48.29082,12.34456 68.52326,27.89874 6.06359,4.66158 11.34857,10.28613 13.39587,18.19022 2.97779,11.49648 -2.15428,18.88515 -14.03487,20.00346 -4.78545,0.45044 -9.37017,-0.70677 -14.49032,-1.62101 z"
   id="path6"
   style="stroke-width:1.1827" />
<path
   fill="#000000"
   opacity="1"
   stroke="none"
   d="m 738.10491,700.75514 c -4.15966,1.45173 -8.20878,5.38702 -11.79751,1.97277 -3.55422,-3.38156 0.80444,-7.21384 1.83446,-10.73312 5.19451,-17.74888 9.62695,-35.67035 13.14133,-53.8268 0.85807,-4.43308 2.21899,-8.76727 3.12925,-13.19207 5.47027,-26.59057 22.83569,-41.86895 47.20381,-51.4266 26.89701,-10.5497 54.55096,-17.88971 83.03852,-22.20391 5.00682,-0.75832 10.2403,-0.41499 15.33332,-0.0627 3.07801,0.21288 6.66414,1.02259 7.68073,4.49445 1.08618,3.70928 -1.3389,6.47515 -4.24987,8.36138 -3.45865,2.24123 -7.08925,4.26929 -10.81008,6.04449 -13.88144,6.62293 -28.38152,11.67861 -42.83583,16.87897 -9.80704,3.52823 -19.31538,7.87715 -29.04742,11.62512 -18.86885,7.26689 -29.3164,21.41296 -34.64878,40.44401 -3.93017,14.0264 -9.13291,27.67807 -16.58842,40.31213 -5.19198,8.79832 -11.9356,16.11813 -21.38351,21.31191 z"
   id="path7"
   style="stroke-width:1.1827" />
</svg>
